<?xml version="1.0" encoding="UTF-8" standalone="no"?>
<svg width="200" height="200" viewBox="0 0 200 200" fill="none" xmlns="http://www.w3.org/2000/svg">
  <!-- Hexagon Shape for decentralization concept -->
  <path d="M100 10L173.2 50V130L100 170L26.8 130V50L100 10Z" fill="#0076FF" fill-opacity="0.1" stroke="#0076FF" stroke-width="3"/>
  
  <!-- Inner connections representing network/blockchain -->
  <path d="M100 50L140 70V110L100 130L60 110V70L100 50Z" fill="#9933FF" fill-opacity="0.2" stroke="#9933FF" stroke-width="2"/>
  
  <!-- Connection lines -->
  <line x1="100" y1="10" x2="100" y2="50" stroke="#0076FF" stroke-width="2"/>
  <line x1="173.2" y1="50" x2="140" y2="70" stroke="#0076FF" stroke-width="2"/>
  <line x1="173.2" y1="130" x2="140" y2="110" stroke="#0076FF" stroke-width="2"/>
  <line x1="100" y1="170" x2="100" y2="130" stroke="#0076FF" stroke-width="2"/>
  <line x1="26.8" y1="130" x2="60" y2="110" stroke="#0076FF" stroke-width="2"/>
  <line x1="26.8" y1="50" x2="60" y2="70" stroke="#0076FF" stroke-width="2"/>
  
  <!-- Central node -->
  <circle cx="100" cy="100" r="15" fill="#FF9900"/>
  
  <!-- Text -->
  <text x="100" y="175" font-family="Arial, sans-serif" font-size="16" font-weight="bold" text-anchor="middle" fill="#212529">DCENTRAL</text>
  <text x="100" y="190" font-family="Arial, sans-serif" font-size="10" text-anchor="middle" fill="#495057">GOVERNANCE PLATFORM</text>
  
  <!-- Connection nodes -->
  <circle cx="100" cy="10" r="5" fill="#0076FF"/>
  <circle cx="173.2" cy="50" r="5" fill="#0076FF"/>
  <circle cx="173.2" cy="130" r="5" fill="#0076FF"/>
  <circle cx="100" cy="170" r="5" fill="#0076FF"/>
  <circle cx="26.8" cy="130" r="5" fill="#0076FF"/>
  <circle cx="26.8" cy="50" r="5" fill="#0076FF"/>
  
  <circle cx="100" cy="50" r="3" fill="#9933FF"/>
  <circle cx="140" cy="70" r="3" fill="#9933FF"/>
  <circle cx="140" cy="110" r="3" fill="#9933FF"/>
  <circle cx="100" cy="130" r="3" fill="#9933FF"/>
  <circle cx="60" cy="110" r="3" fill="#9933FF"/>
  <circle cx="60" cy="70" r="3" fill="#9933FF"/>
</svg>