<?xml version="1.0" encoding="UTF-8" standalone="no"?>
<svg width="200" height="200" viewBox="0 0 200 200" fill="none" xmlns="http://www.w3.org/2000/svg">
  <!-- Primary color based on design tokens -->
  <defs>
    <linearGradient id="gradient1" x1="0%" y1="0%" x2="100%" y2="100%">
      <stop offset="0%" stop-color="#0EA5E9" />
      <stop offset="100%" stop-color="#0284C7" />
    </linearGradient>
    <linearGradient id="gradient2" x1="0%" y1="0%" x2="100%" y2="100%">
      <stop offset="0%" stop-color="#6366F1" />
      <stop offset="100%" stop-color="#4F46E5" />
    </linearGradient>
  </defs>
  
  <!-- Outer Hexagon Shape for decentralization concept -->
  <path d="M100 10L173.2 50V130L100 170L26.8 130V50L100 10Z" fill="url(#gradient1)" fill-opacity="0.1" stroke="url(#gradient1)" stroke-width="3"/>
  
  <!-- Inner connections representing network/blockchain -->
  <path d="M100 50L140 70V110L100 130L60 110V70L100 50Z" fill="url(#gradient2)" fill-opacity="0.2" stroke="url(#gradient2)" stroke-width="2"/>
  
  <!-- Connection lines -->
  <line x1="100" y1="10" x2="100" y2="50" stroke="#0284C7" stroke-width="2"/>
  <line x1="173.2" y1="50" x2="140" y2="70" stroke="#0284C7" stroke-width="2"/>
  <line x1="173.2" y1="130" x2="140" y2="110" stroke="#0284C7" stroke-width="2"/>
  <line x1="100" y1="170" x2="100" y2="130" stroke="#0284C7" stroke-width="2"/>
  <line x1="26.8" y1="130" x2="60" y2="110" stroke="#0284C7" stroke-width="2"/>
  <line x1="26.8" y1="50" x2="60" y2="70" stroke="#0284C7" stroke-width="2"/>
  
  <!-- Central node -->
  <circle cx="100" cy="100" r="15" fill="#F59E0B"/>
  
  <!-- Text as paths instead of text elements -->
  <g fill="#0F172A" transform="translate(42, 175)">
    <!-- D -->
    <path d="M0.92 0V-12.32H5.24C7.2933 -12.32 8.8533 -11.9067 9.92 -11.08C10.9867 -10.2533 11.52 -9.0267 11.52 -7.4C11.52 -5.8 10.9867 -4.58 9.92 -3.74C8.8533 -2.9133 7.2933 -2.5 5.24 -2.5H3.1V0H0.92ZM3.1 -4.38H5.04C6.36 -4.38 7.32 -4.6 7.92 -5.04C8.5333 -5.4933 8.84 -6.3067 8.84 -7.48C8.84 -8.6267 8.5333 -9.42 7.92 -9.86C7.32 -10.3 6.36 -10.52 5.04 -10.52H3.1V-4.38Z"/>
    <!-- C -->
    <path d="M19.7736 0.18C18.3603 0.18 17.1336 -0.1067 16.0936 -0.68C15.0536 -1.2533 14.2536 -2.08 13.6936 -3.16C13.1336 -4.24 12.8536 -5.5 12.8536 -6.94C12.8536 -8.3667 13.1336 -9.62 13.6936 -10.7C14.2536 -11.78 15.0536 -12.6067 16.0936 -13.18C17.1336 -13.7533 18.3603 -14.04 19.7736 -14.04C20.8669 -14.04 21.8536 -13.88 22.7336 -13.56C23.6136 -13.2533 24.3469 -12.7867 24.9336 -12.16L23.6936 -10.38C23.1736 -10.8867 22.6003 -11.2733 21.9736 -11.54C21.3469 -11.8067 20.6536 -11.94 19.8936 -11.94C18.9736 -11.94 18.1669 -11.7533 17.4736 -11.38C16.7803 -11.02 16.2403 -10.5 15.8536 -9.82C15.4669 -9.14 15.2736 -8.3267 15.2736 -7.38C15.2736 -6.4067 15.4669 -5.58 15.8536 -4.9C16.2403 -4.22 16.7803 -3.7 17.4736 -3.34C18.1669 -2.98 18.9736 -2.8 19.8936 -2.8C20.6536 -2.8 21.3469 -2.9333 21.9736 -3.2C22.6003 -3.4667 23.1736 -3.8533 23.6936 -4.36L24.9336 -2.58C24.3469 -1.9533 23.6136 -1.48 22.7336 -1.16C21.8536 -0.84 20.8669 -0.68 19.7736 -0.18Z"/>
    <!-- E -->
    <path d="M31.0872 0V-12.32H39.3672V-10.32H33.2672V-7.06H38.6272V-5.06H33.2672V-2H39.5872V0H31.0872Z"/>
    <!-- N -->
    <path d="M45.5808 0V-12.32H47.7008L53.2608 -4.62L52.7808 -4.22V-12.32H54.8808V0H52.7608L47.1808 -7.68L47.6808 -8.08V0H45.5808Z"/>
    <!-- T -->
    <path d="M65.7844 -10.32H61.9444V-12.32H71.8244V-10.32H67.9844V0H65.7844V-10.32Z"/>
    <!-- R -->
    <path d="M77.868 0V-12.32H82.188C84.2413 -12.32 85.8013 -11.9067 86.868 -11.08C87.9346 -10.2533 88.468 -9.0267 88.468 -7.4C88.468 -5.7733 87.9346 -4.5467 86.868 -3.72C85.8013 -2.8933 84.2413 -2.48 82.188 -2.48H80.048V0H77.868ZM80.048 -4.38H81.988C83.308 -4.38 84.268 -4.6 84.868 -5.04C85.4813 -5.4933 85.788 -6.3067 85.788 -7.48C85.788 -8.6267 85.4813 -9.42 84.868 -9.86C84.268 -10.3 83.308 -10.52 81.988 -10.52H80.048V-4.38ZM88.368 0L85.108 -5.12L87.448 -5.56L91.008 0H88.368Z"/>
    <!-- A -->
    <path d="M96.6016 0V-12.32H98.8016V0H96.6016ZM93.3416 -5.18V-7.22H102.062V-5.18H93.3416Z"/>
    <!-- L -->
    <path d="M108.005 0V-12.32H110.205V-2H116.325V0H108.005Z"/>
  </g>
  
  <g fill="#64748B" transform="translate(65, 190)" style="font-size: 10px;">
    <!-- GOVERNANCE PLATFORM text converted to path -->
    <path d="M0.93 0V-7.7H2.32C2.9867 -7.7 3.52 -7.6 3.92 -7.4C4.32 -7.2 4.6 -6.9133 4.76 -6.54C4.92 -6.1667 5 -5.7267 5 -5.22C5 -4.7133 4.92 -4.2733 4.76 -3.9C4.6 -3.5267 4.32 -3.24 3.92 -3.04C3.52 -2.84 2.9867 -2.74 2.32 -2.74H1.56V0H0.93ZM1.56 -3.33H2.26C2.7467 -3.33 3.1 -3.4 3.32 -3.54C3.54 -3.6867 3.6867 -3.8733 3.76 -4.1C3.84 -4.3333 3.88 -4.6333 3.88 -5C3.88 -5.3667 3.84 -5.6667 3.76 -5.9C3.6867 -6.1333 3.54 -6.32 3.32 -6.46C3.1 -6.6 2.7467 -6.67 2.26 -6.67H1.56V-3.33Z"/>
    <path d="M9.3341 0.09C8.81406 0.09 8.36073 -0.0233 7.9741 -0.25C7.5941 -0.4767 7.30073 -0.7933 7.0941 -1.2C6.8941 -1.6067 6.7941 -2.0867 6.7941 -2.64C6.7941 -3.1933 6.8941 -3.6733 7.0941 -4.08C7.30073 -4.4867 7.5941 -4.8033 7.9741 -5.03C8.36073 -5.2567 8.81406 -5.37 9.3341 -5.37C9.85406 -5.37 10.3007 -5.2567 10.6807 -5.03C11.0674 -4.8033 11.3607 -4.4867 11.5607 -4.08C11.7674 -3.6733 11.8707 -3.1933 11.8707 -2.64C11.8707 -2.0867 11.7674 -1.6067 11.5607 -1.2C11.3607 -0.7933 11.0674 -0.4767 10.6807 -0.25C10.3007 -0.0233 9.85406 0.09 9.3341 0.09ZM9.3341 -0.52C9.6674 -0.52 9.95406 -0.6 10.1941 -0.76C10.4341 -0.9267 10.6207 -1.16 10.7541 -1.46C10.8874 -1.7667 10.9541 -2.14 10.9541 -2.58C10.9541 -3.0267 10.8874 -3.4 10.7541 -3.7C10.6207 -4 10.4341 -4.23 10.1941 -4.39C9.95406 -4.55 9.6674 -4.63 9.3341 -4.63C9.00073 -4.63 8.71406 -4.55 8.4741 -4.39C8.2341 -4.23 8.0474 -4 7.9141 -3.7C7.78073 -3.4 7.7141 -3.0267 7.7141 -2.58C7.7141 -2.14 7.78073 -1.7667 7.9141 -1.46C8.0474 -1.16 8.2341 -0.9267 8.4741 -0.76C8.71406 -0.6 9.00073 -0.52 9.3341 -0.52Z"/>
    <path d="M13.3881 0V-5.28H14.2081L14.1681 -4.3C14.2615 -4.6333 14.4548 -4.9 14.7481 -5.1C15.0481 -5.3 15.4048 -5.4 15.8181 -5.4C16.2381 -5.4 16.5915 -5.3067 16.8781 -5.12C17.1715 -4.9333 17.3981 -4.6733 17.5581 -4.34C17.7181 -4 17.7981 -3.6067 17.7981 -3.16V0H16.8781V-3.05C16.8781 -3.43 16.8015 -3.73 16.6481 -3.95C16.5015 -4.1767 16.2781 -4.29 15.9781 -4.29C15.6981 -4.29 15.4581 -4.2 15.2581 -4.02C15.0648 -3.8467 14.9181 -3.62 14.8181 -3.34C14.7248 -3.0667 14.6781 -2.78 14.6781 -2.48V0H13.3881Z"/>
    <path d="M23.0848 0V-5.28H24.3748V0H23.0848ZM23.7248 -6.18C23.5115 -6.18 23.3348 -6.25 23.1948 -6.39C23.0548 -6.5367 22.9848 -6.7133 22.9848 -6.92C22.9848 -7.1267 23.0548 -7.3 23.1948 -7.44C23.3348 -7.5867 23.5115 -7.66 23.7248 -7.66C23.9381 -7.66 24.1148 -7.5867 24.2548 -7.44C24.3948 -7.3 24.4648 -7.1267 24.4648 -6.92C24.4648 -6.7133 24.3948 -6.5367 24.2548 -6.39C24.1148 -6.25 23.9381 -6.18 23.7248 -6.18Z"/>
    <path d="M27.7619 0V-5.28H28.5819L28.5419 -4.39C28.6486 -4.6967 28.8319 -4.9433 29.0919 -5.13C29.3586 -5.3167 29.6919 -5.41 30.0919 -5.41C30.1853 -5.41 30.2786 -5.4033 30.3719 -5.39C30.4653 -5.3833 30.5453 -5.37 30.6119 -5.35L30.4719 -4.37C30.3986 -4.4033 30.3153 -4.4267 30.2219 -4.44C30.1286 -4.4533 30.0319 -4.46 29.9319 -4.46C29.6119 -4.46 29.3386 -4.3833 29.1119 -4.23C28.8919 -4.0833 28.7219 -3.8833 28.6019 -3.63C28.4819 -3.3833 28.4219 -3.1133 28.4219 -2.82V0H27.7619Z"/>
    <path d="M31.5753 0V-5.28H32.3953L32.3553 -4.3C32.4486 -4.6333 32.642 -4.9 32.9353 -5.1C33.2353 -5.3 33.592 -5.4 34.0053 -5.4C34.4253 -5.4 34.7786 -5.3067 35.0653 -5.12C35.3586 -4.9333 35.5853 -4.6733 35.7453 -4.34C35.9053 -4 35.9853 -3.6067 35.9853 -3.16V0H35.0653V-3.05C35.0653 -3.43 34.9886 -3.73 34.8353 -3.95C34.6886 -4.1767 34.4653 -4.29 34.1653 -4.29C33.8853 -4.29 33.6453 -4.2 33.4453 -4.02C33.252 -3.8467 33.1053 -3.62 33.0053 -3.34C32.912 -3.0667 32.8653 -2.78 32.8653 -2.48V0H31.5753Z"/>
    <path d="M40.2769 0.09C39.8636 0.09 39.4903 0.0033 39.1569 -0.17C38.8303 -0.3433 38.5703 -0.5933 38.3769 -0.92C38.1903 -1.2467 38.0969 -1.6367 38.0969 -2.09V-5.28H39.3869V-2.13C39.3869 -1.75 39.4636 -1.4467 39.6169 -1.22C39.7769 -0.9933 40.0069 -0.88 40.3069 -0.88C40.5869 -0.88 40.8236 -0.97 41.0169 -1.15C41.2169 -1.33 41.3669 -1.5567 41.4669 -1.83C41.5669 -2.11 41.6169 -2.3967 41.6169 -2.69V-5.28H42.9069V0H42.0869L42.1269 -0.98C42.0269 -0.6467 41.8303 -0.38 41.5369 -0.18C41.2436 0.0133 40.8836 0.11 40.4569 0.11L40.2769 0.09Z"/>
    <path d="M44.6644 0V-5.28H45.4844L45.4444 -4.3C45.5377 -4.6333 45.731 -4.9 46.0244 -5.1C46.3244 -5.3 46.681 -5.4 47.0944 -5.4C47.5144 -5.4 47.8677 -5.3067 48.1544 -5.12C48.4477 -4.9333 48.6744 -4.6733 48.8344 -4.34C48.9944 -4 49.0744 -3.6067 49.0744 -3.16V0H48.1544V-3.05C48.1544 -3.43 48.0777 -3.73 47.9244 -3.95C47.7777 -4.1767 47.5544 -4.29 47.2544 -4.29C46.9744 -4.29 46.7344 -4.2 46.5344 -4.02C46.341 -3.8467 46.1944 -3.62 46.0944 -3.34C46.001 -3.0667 45.9544 -2.78 45.9544 -2.48V0H44.6644Z"/>
    <path d="M50.656 0V-7.7H51.946V0H50.656Z"/>
    <path d="M53.3227 0V-5.28H54.1427L54.1027 -4.3C54.1961 -4.6333 54.3894 -4.9 54.6827 -5.1C54.9827 -5.3 55.3394 -5.4 55.7527 -5.4C56.1727 -5.4 56.5261 -5.3067 56.8127 -5.12C57.1061 -4.9333 57.3327 -4.6733 57.4927 -4.34C57.6527 -4 57.7327 -3.6067 57.7327 -3.16V0H56.8127V-3.05C56.8127 -3.43 56.7361 -3.73 56.5827 -3.95C56.4361 -4.1767 56.2127 -4.29 55.9127 -4.29C55.6327 -4.29 55.3927 -4.2 55.1927 -4.02C54.9994 -3.8467 54.8527 -3.62 54.7527 -3.34C54.6594 -3.0667 54.6127 -2.78 54.6127 -2.48V0H53.3227Z"/>
    <path d="M62.7293 0V-1.68H62.1893L60.5693 0H59.4693L61.3293 -1.92L59.6093 -3.6H60.7693L62.1693 -2.09H62.7293V-5.28H63.3893V-2.09H63.9493V-1.35H63.3893V0H62.7293Z"/>
    <path d="M65.0129 0V-5.28H65.833L65.793 -4.3C65.8863 -4.6333 66.0796 -4.9 66.3729 -5.1C66.6729 -5.3 67.0296 -5.4 67.4429 -5.4C67.8629 -5.4 68.2163 -5.3067 68.5029 -5.12C68.7963 -4.9333 69.0229 -4.6733 69.1829 -4.34C69.3429 -4 69.4229 -3.6067 69.4229 -3.16V0H68.5029V-3.05C68.5029 -3.43 68.4263 -3.73 68.2729 -3.95C68.1263 -4.1767 67.9029 -4.29 67.6029 -4.29C67.3229 -4.29 67.0829 -4.2 66.8829 -4.02C66.6896 -3.8467 66.5429 -3.62 66.4429 -3.34C66.3496 -3.0667 66.3029 -2.78 66.3029 -2.48V0H65.0129Z"/>
  </g>
  
  <!-- Connection nodes -->
  <circle cx="100" cy="10" r="5" fill="#0284C7"/>
  <circle cx="173.2" cy="50" r="5" fill="#0284C7"/>
  <circle cx="173.2" cy="130" r="5" fill="#0284C7"/>
  <circle cx="100" cy="170" r="5" fill="#0284C7"/>
  <circle cx="26.8" cy="130" r="5" fill="#0284C7"/>
  <circle cx="26.8" cy="50" r="5" fill="#0284C7"/>
  
  <circle cx="100" cy="50" r="3" fill="#6366F1"/>
  <circle cx="140" cy="70" r="3" fill="#6366F1"/>
  <circle cx="140" cy="110" r="3" fill="#6366F1"/>
  <circle cx="100" cy="130" r="3" fill="#6366F1"/>
  <circle cx="60" cy="110" r="3" fill="#6366F1"/>
  <circle cx="60" cy="70" r="3" fill="#6366F1"/>
</svg>