<?xml version="1.0" encoding="UTF-8" standalone="no"?>
<svg xmlns="http://www.w3.org/2000/svg" width="240" height="80" viewBox="0 0 240 80">
  <defs>
    <linearGradient id="logo-gradient" x1="0%" y1="0%" x2="100%" y2="0%">
      <stop offset="0%" stop-color="#0EA5E9" />
      <stop offset="100%" stop-color="#0284C7" />
    </linearGradient>
  </defs>
  
  <!-- Hexagon Logo Shape -->
  <path d="M40 10L70 25V55L40 70L10 55V25L40 10Z" fill="none" stroke="url(#logo-gradient)" stroke-width="3" />
  
  <!-- Inner Pattern -->
  <path d="M40 25L55 33V47L40 55L25 47V33L40 25Z" fill="none" stroke="#6366F1" stroke-width="2" />
  
  <!-- Connection Lines -->
  <line x1="40" y1="10" x2="40" y2="25" stroke="#0EA5E9" stroke-width="1.5" />
  <line x1="70" y1="25" x2="55" y2="33" stroke="#0EA5E9" stroke-width="1.5" />
  <line x1="70" y1="55" x2="55" y2="47" stroke="#0EA5E9" stroke-width="1.5" />
  <line x1="40" y1="70" x2="40" y2="55" stroke="#0EA5E9" stroke-width="1.5" />
  <line x1="10" y1="55" x2="25" y2="47" stroke="#0EA5E9" stroke-width="1.5" />
  <line x1="10" y1="25" x2="25" y2="33" stroke="#0EA5E9" stroke-width="1.5" />
  
  <!-- Central Node -->
  <circle cx="40" cy="40" r="6" fill="#F59E0B" />
  
  <!-- Connection Points -->
  <circle cx="40" cy="10" r="2.5" fill="#0EA5E9" />
  <circle cx="70" cy="25" r="2.5" fill="#0EA5E9" />
  <circle cx="70" cy="55" r="2.5" fill="#0EA5E9" />
  <circle cx="40" cy="70" r="2.5" fill="#0EA5E9" />
  <circle cx="10" cy="55" r="2.5" fill="#0EA5E9" />
  <circle cx="10" cy="25" r="2.5" fill="#0EA5E9" />
  
  <circle cx="40" cy="25" r="1.5" fill="#6366F1" />
  <circle cx="55" cy="33" r="1.5" fill="#6366F1" />
  <circle cx="55" cy="47" r="1.5" fill="#6366F1" />
  <circle cx="40" cy="55" r="1.5" fill="#6366F1" />
  <circle cx="25" cy="47" r="1.5" fill="#6366F1" />
  <circle cx="25" cy="33" r="1.5" fill="#6366F1" />
  
  <!-- Text -->
  <g transform="translate(90, 45)" fill="#0F172A">
    <!-- D -->
    <path d="M0 -15h8.5c2.5 0 4.5 0.7 5.8 2.1c1.3 1.4 2 3.3 2 5.7c0 2.4-0.7 4.3-2 5.7c-1.3 1.4-3.3 2.1-5.8 2.1H0V-15zm7 3.1H3.4v9.3h3.6c1.5 0 2.6-0.4 3.4-1.1c0.7-0.7 1.1-1.8 1.1-3.6c0-1.7-0.4-2.9-1.1-3.6c-0.7-0.7-1.9-1.1-3.4-1.1z"/>
    <!-- C -->
    <path d="M23.6 1c-1.7 0-3.1-0.4-4.3-1.2c-1.2-0.8-2.1-1.8-2.8-3.1c-0.6-1.3-1-2.8-1-4.5c0-1.7 0.3-3.2 1-4.5c0.7-1.3 1.6-2.3 2.8-3.1c1.2-0.8 2.6-1.1 4.3-1.1c1.4 0 2.6 0.2 3.7 0.7c1.1 0.5 2 1.2 2.7 2.1l-2.6 2.2c-0.9-1.2-2.1-1.8-3.6-1.8c-1.1 0-2 0.3-2.7 0.8c-0.7 0.5-1.3 1.2-1.6 2.1c-0.3 0.9-0.5 1.8-0.5 2.8c0 1 0.2 1.9 0.5 2.8c0.3 0.9 0.9 1.6 1.6 2.1c0.7 0.5 1.6 0.8 2.7 0.8c1.5 0 2.7-0.6 3.6-1.8l2.6 2.2c-0.7 0.9-1.6 1.6-2.7 2.1C26.2 0.7 25 1 23.6 1z"/>
    <!-- E -->
    <path d="M35.6 0.6v-15.1h12.1v2.9h-8.7v3.1h7.7v2.8h-7.7v3.3h8.9v3h-12.3z"/>
    <!-- N -->
    <path d="M53.1 0.6v-15.1h3l8 9.4v-9.4h3.4v15.1h-3l-8-9.4v9.4h-3.4z"/>
    <!-- T -->
    <path d="M71 0.6v-12.1h-4.2v-3h11.7v3H74.4v12.1H71z"/>
    <!-- R -->
    <path d="M83.1 0.6v-15.1h8.3c2 0 3.6 0.5 4.7 1.5c1.1 1 1.7 2.4 1.7 4.2c0 1.2-0.3 2.2-0.8 3c-0.6 0.8-1.4 1.4-2.4 1.8l4.2 4.7h-4l-3.6-4.2h-4.5v4.2h-3.5zm3.5-7.1h4.4c1 0 1.7-0.2 2.2-0.7c0.5-0.5 0.7-1.1 0.7-1.9c0-0.8-0.2-1.5-0.7-1.9c-0.5-0.5-1.2-0.7-2.2-0.7h-4.4v5.2z"/>
    <!-- A -->
    <path d="M107.4 0.6v-15.1h3.5v15.1h-3.5zm-6-6.8v-2.8h12.5v2.8h-12.5z"/>
    <!-- L -->
    <path d="M121.5 0.6v-15.1h3.5v12.1h8.9v3h-12.4z"/>
  </g>

  <!-- Subtitle -->
  <text x="120" y="65" font-family="Arial, sans-serif" font-size="10" text-anchor="middle" fill="#64748B">GOVERNANCE PLATFORM</text>
</svg>