<?xml version="1.0" encoding="UTF-8" standalone="no"?>
<svg width="200" height="200" viewBox="0 0 200 200" fill="none" xmlns="http://www.w3.org/2000/svg">
  <defs>
    <linearGradient id="primary" x1="0%" y1="0%" x2="100%" y2="100%">
      <stop offset="0%" stop-color="#0EA5E9" />
      <stop offset="100%" stop-color="#0284C7" />
    </linearGradient>
    <linearGradient id="secondary" x1="0%" y1="0%" x2="100%" y2="100%">
      <stop offset="0%" stop-color="#6366F1" />
      <stop offset="100%" stop-color="#4F46E5" />
    </linearGradient>
  </defs>

  <!-- Hexagon Shape for decentralization concept -->
  <path d="M100 10L173.2 50V130L100 170L26.8 130V50L100 10Z" fill="url(#primary)" fill-opacity="0.1" stroke="url(#primary)" stroke-width="3"/>

  <!-- Inner connections representing network/blockchain -->
  <path d="M100 50L140 70V110L100 130L60 110V70L100 50Z" fill="url(#secondary)" fill-opacity="0.2" stroke="url(#secondary)" stroke-width="2"/>

  <!-- Connection lines -->
  <line x1="100" y1="10" x2="100" y2="50" stroke="#0284C7" stroke-width="2"/>
  <line x1="173.2" y1="50" x2="140" y2="70" stroke="#0284C7" stroke-width="2"/>
  <line x1="173.2" y1="130" x2="140" y2="110" stroke="#0284C7" stroke-width="2"/>
  <line x1="100" y1="170" x2="100" y2="130" stroke="#0284C7" stroke-width="2"/>
  <line x1="26.8" y1="130" x2="60" y2="110" stroke="#0284C7" stroke-width="2"/>
  <line x1="26.8" y1="50" x2="60" y2="70" stroke="#0284C7" stroke-width="2"/>

  <!-- Central node -->
  <circle cx="100" cy="100" r="15" fill="#F59E0B"/>

  <!-- Text as paths -->
  <g fill="#0F172A">
    <!-- D -->
    <path d="M58.92 175V162.68H63.24C65.2933 162.68 66.8533 163.093 67.92 163.92C68.9867 164.747 69.52 165.973 69.52 167.6C69.52 169.2 68.9867 170.42 67.92 171.26C66.8533 172.087 65.2933 172.5 63.24 172.5H61.1V175H58.92ZM61.1 170.62H63.04C64.36 170.62 65.32 170.4 65.92 169.96C66.5333 169.507 66.84 168.693 66.84 167.52C66.84 166.373 66.5333 165.58 65.92 165.14C65.32 164.7 64.36 164.48 63.04 164.48H61.1V170.62Z"/>
    <!-- C -->
    <path d="M77.7736 175.18C76.3603 175.18 75.1336 174.893 74.0936 174.32C73.0536 173.747 72.2536 172.92 71.6936 171.84C71.1336 170.76 70.8536 169.5 70.8536 168.06C70.8536 166.633 71.1336 165.38 71.6936 164.3C72.2536 163.22 73.0536 162.393 74.0936 161.82C75.1336 161.247 76.3603 160.96 77.7736 160.96C78.8669 160.96 79.8536 161.12 80.7336 161.44C81.6136 161.747 82.3469 162.213 82.9336 162.84L81.6936 164.62C81.1736 164.113 80.6003 163.727 79.9736 163.46C79.3469 163.193 78.6536 163.06 77.8936 163.06C76.9736 163.06 76.1669 163.247 75.4736 163.62C74.7803 163.98 74.2403 164.5 73.8536 165.18C73.4669 165.86 73.2736 166.673 73.2736 167.62C73.2736 168.593 73.4669 169.42 73.8536 170.1C74.2403 170.78 74.7803 171.3 75.4736 171.66C76.1669 172.02 76.9736 172.2 77.8936 172.2C78.6536 172.2 79.3469 172.067 79.9736 171.8C80.6003 171.533 81.1736 171.147 81.6936 170.64L82.9336 172.42C82.3469 173.047 81.6136 173.52 80.7336 173.84C79.8536 174.16 78.8669 174.32 77.7736 174.82Z"/>
    <!-- E -->
    <path d="M89.0872 175V162.68H97.3672V164.68H91.2672V167.94H96.6272V169.94H91.2672V173H97.5872V175H89.0872Z"/>
    <!-- N -->
    <path d="M103.581 175V162.68H105.701L111.261 170.38L110.781 170.78V162.68H112.881V175H110.761L105.181 167.32L105.681 166.92V175H103.581Z"/>
    <!-- T -->
    <path d="M123.784 164.68H119.944V162.68H129.824V164.68H125.984V175H123.784V164.68Z"/>
    <!-- R -->
    <path d="M135.868 175V162.68H140.188C142.241 162.68 143.801 163.093 144.868 163.92C145.935 164.747 146.468 165.973 146.468 167.6C146.468 169.227 145.935 170.453 144.868 171.28C143.801 172.107 142.241 172.52 140.188 172.52H138.048V175H135.868ZM138.048 170.62H139.988C141.308 170.62 142.268 170.4 142.868 169.96C143.481 169.507 143.788 168.693 143.788 167.52C143.788 166.373 143.481 165.58 142.868 165.14C142.268 164.7 141.308 164.48 139.988 164.48H138.048V170.62ZM146.368 175L143.108 169.88L145.448 169.44L149.008 175H146.368Z"/>
    <!-- A -->
    <path d="M154.602 175V162.68H156.802V175H154.602ZM151.342 169.82V167.78H160.062V169.82H151.342Z"/>
    <!-- L -->
    <path d="M166.005 175V162.68H168.205V173H174.325V175H166.005Z"/>
  </g>

  <!-- Subtitle -->
  <g fill="#64748B" transform="translate(65, 190)">
    <path d="M0.94 0V-7.7H3.64V-1H6.94V0H0.94Z" style="font-size: 10px;"/>
    <path d="M8.88 0V-7.7H11.58V0H8.88Z" style="font-size: 10px;" transform="translate(8, 0)"/>
    <path d="M13.54 0V-7.7H16.24V-1H19.54V0H13.54Z" style="font-size: 10px;" transform="translate(13, 0)"/>
    <path d="M21.48 0V-7.7H24.18V0H21.48Z" style="font-size: 10px;" transform="translate(21, 0)"/>
    <path d="M26.14 0V-7.7H28.84V0H26.14Z" style="font-size: 10px;" transform="translate(27, 0)"/>
    <path d="M30.8 0V-7.7H33.5V0H30.8Z" style="font-size: 10px;" transform="translate(35, 0)"/>
    <path d="M35.46 0V-7.7H38.16V-1H41.46V0H35.46Z" style="font-size: 10px;" transform="translate(42, 0)"/>
    <path d="M42.8 0V-7.7H45.5V0H42.8Z" style="font-size: 10px;" transform="translate(50, 0)"/>
    <path d="M47.46 0V-7.7H50.16V-1H53.46V0H47.46Z" style="font-size: 10px;" transform="translate(56, 0)"/>
  </g>

  <!-- Connection nodes -->
  <circle cx="100" cy="10" r="5" fill="#0284C7"/>
  <circle cx="173.2" cy="50" r="5" fill="#0284C7"/>
  <circle cx="173.2" cy="130" r="5" fill="#0284C7"/>
  <circle cx="100" cy="170" r="5" fill="#0284C7"/>
  <circle cx="26.8" cy="130" r="5" fill="#0284C7"/>
  <circle cx="26.8" cy="50" r="5" fill="#0284C7"/>

  <circle cx="100" cy="50" r="3" fill="#6366F1"/>
  <circle cx="140" cy="70" r="3" fill="#6366F1"/>
  <circle cx="140" cy="110" r="3" fill="#6366F1"/>
  <circle cx="100" cy="130" r="3" fill="#6366F1"/>
  <circle cx="60" cy="110" r="3" fill="#6366F1"/>
  <circle cx="60" cy="70" r="3" fill="#6366F1"/>
</svg>